<svg id="visual" viewBox="0 0 900 600" width="900" height="600" xmlns="http://www.w3.org/2000/svg" xmlns:xlink="http://www.w3.org/1999/xlink" version="1.1"><rect x="0" y="0" width="900" height="600" fill="#001220"></rect><defs><linearGradient id="grad1_0" x1="33.3%" y1="100%" x2="100%" y2="0%"><stop offset="20%" stop-color="#001220" stop-opacity="1"></stop><stop offset="80%" stop-color="#001220" stop-opacity="1"></stop></linearGradient></defs><defs><linearGradient id="grad2_0" x1="0%" y1="100%" x2="66.7%" y2="0%"><stop offset="20%" stop-color="#001220" stop-opacity="1"></stop><stop offset="80%" stop-color="#001220" stop-opacity="1"></stop></linearGradient></defs><g transform="translate(900, 600)"><path d="M-297.5 0C-284.6 -48.8 -271.7 -97.6 -248.5 -143.5C-225.4 -189.4 -191.9 -232.4 -148.7 -257.6C-105.6 -282.8 -52.8 -290.1 0 -297.5L0 0Z" fill="#FBAE3C"></path></g><g transform="translate(0, 0)"><path d="M297.5 0C290.2 52.9 282.9 105.8 257.6 148.7C232.3 191.6 188.9 224.6 143 247.7C97.1 270.8 48.5 284.1 0 297.5L0 0Z" fill="#FBAE3C"></path></g></svg>