<svg id="visual" viewBox="0 0 900 600" width="900" height="600" xmlns="http://www.w3.org/2000/svg" xmlns:xlink="http://www.w3.org/1999/xlink" version="1.1"><rect x="0" y="0" width="900" height="600" fill="#001220"></rect><path d="M0 187L21.5 176.3C43 165.7 86 144.3 128.8 137.2C171.7 130 214.3 137 257.2 147.3C300 157.7 343 171.3 385.8 170.3C428.7 169.3 471.3 153.7 514.2 145.8C557 138 600 138 642.8 144C685.7 150 728.3 162 771.2 163C814 164 857 154 878.5 149L900 144L900 0L878.5 0C857 0 814 0 771.2 0C728.3 0 685.7 0 642.8 0C600 0 557 0 514.2 0C471.3 0 428.7 0 385.8 0C343 0 300 0 257.2 0C214.3 0 171.7 0 128.8 0C86 0 43 0 21.5 0L0 0Z" fill="#fa7268"></path><path d="M0 137L21.5 139.3C43 141.7 86 146.3 128.8 143.3C171.7 140.3 214.3 129.7 257.2 130.3C300 131 343 143 385.8 139.8C428.7 136.7 471.3 118.3 514.2 116C557 113.7 600 127.3 642.8 137.7C685.7 148 728.3 155 771.2 149.5C814 144 857 126 878.5 117L900 108L900 0L878.5 0C857 0 814 0 771.2 0C728.3 0 685.7 0 642.8 0C600 0 557 0 514.2 0C471.3 0 428.7 0 385.8 0C343 0 300 0 257.2 0C214.3 0 171.7 0 128.8 0C86 0 43 0 21.5 0L0 0Z" fill="#ef5f67"></path><path d="M0 83L21.5 88.7C43 94.3 86 105.7 128.8 108.8C171.7 112 214.3 107 257.2 99.3C300 91.7 343 81.3 385.8 82.2C428.7 83 471.3 95 514.2 96.5C557 98 600 89 642.8 84.8C685.7 80.7 728.3 81.3 771.2 80.3C814 79.3 857 76.7 878.5 75.3L900 74L900 0L878.5 0C857 0 814 0 771.2 0C728.3 0 685.7 0 642.8 0C600 0 557 0 514.2 0C471.3 0 428.7 0 385.8 0C343 0 300 0 257.2 0C214.3 0 171.7 0 128.8 0C86 0 43 0 21.5 0L0 0Z" fill="#e34c67"></path><path d="M0 55L21.5 57.8C43 60.7 86 66.3 128.8 72.5C171.7 78.7 214.3 85.3 257.2 82.8C300 80.3 343 68.7 385.8 68.3C428.7 68 471.3 79 514.2 80.5C557 82 600 74 642.8 69.8C685.7 65.7 728.3 65.3 771.2 64.8C814 64.3 857 63.7 878.5 63.3L900 63L900 0L878.5 0C857 0 814 0 771.2 0C728.3 0 685.7 0 642.8 0C600 0 557 0 514.2 0C471.3 0 428.7 0 385.8 0C343 0 300 0 257.2 0C214.3 0 171.7 0 128.8 0C86 0 43 0 21.5 0L0 0Z" fill="#d53867"></path><path d="M0 30L21.5 32.3C43 34.7 86 39.3 128.8 42C171.7 44.7 214.3 45.3 257.2 45.2C300 45 343 44 385.8 43C428.7 42 471.3 41 514.2 37.5C557 34 600 28 642.8 28C685.7 28 728.3 34 771.2 39.3C814 44.7 857 49.3 878.5 51.7L900 54L900 0L878.5 0C857 0 814 0 771.2 0C728.3 0 685.7 0 642.8 0C600 0 557 0 514.2 0C471.3 0 428.7 0 385.8 0C343 0 300 0 257.2 0C214.3 0 171.7 0 128.8 0C86 0 43 0 21.5 0L0 0Z" fill="#c62368"></path></svg>