<svg id="visual" viewBox="0 0 900 600" width="900" height="600" xmlns="http://www.w3.org/2000/svg" xmlns:xlink="http://www.w3.org/1999/xlink" version="1.1"><rect x="0" y="0" width="900" height="600" fill="#001220"></rect><path d="M0 251L16.7 249.8C33.3 248.7 66.7 246.3 100 236.2C133.3 226 166.7 208 200 207.8C233.3 207.7 266.7 225.3 300 238.8C333.3 252.3 366.7 261.7 400 267C433.3 272.3 466.7 273.7 500 274.5C533.3 275.3 566.7 275.7 600 267.2C633.3 258.7 666.7 241.3 700 233.2C733.3 225 766.7 226 800 224.8C833.3 223.7 866.7 220.3 883.3 218.7L900 217L900 601L883.3 601C866.7 601 833.3 601 800 601C766.7 601 733.3 601 700 601C666.7 601 633.3 601 600 601C566.7 601 533.3 601 500 601C466.7 601 433.3 601 400 601C366.7 601 333.3 601 300 601C266.7 601 233.3 601 200 601C166.7 601 133.3 601 100 601C66.7 601 33.3 601 16.7 601L0 601Z" fill="#faab69"></path><path d="M0 322L16.7 325.7C33.3 329.3 66.7 336.7 100 325.8C133.3 315 166.7 286 200 282.7C233.3 279.3 266.7 301.7 300 305.5C333.3 309.3 366.7 294.7 400 294.5C433.3 294.3 466.7 308.7 500 319.5C533.3 330.3 566.7 337.7 600 333.3C633.3 329 666.7 313 700 308.7C733.3 304.3 766.7 311.7 800 313C833.3 314.3 866.7 309.7 883.3 307.3L900 305L900 601L883.3 601C866.7 601 833.3 601 800 601C766.7 601 733.3 601 700 601C666.7 601 633.3 601 600 601C566.7 601 533.3 601 500 601C466.7 601 433.3 601 400 601C366.7 601 333.3 601 300 601C266.7 601 233.3 601 200 601C166.7 601 133.3 601 100 601C66.7 601 33.3 601 16.7 601L0 601Z" fill="#ff8367"></path><path d="M0 391L16.7 386C33.3 381 66.7 371 100 363C133.3 355 166.7 349 200 359.3C233.3 369.7 266.7 396.3 300 402C333.3 407.7 366.7 392.3 400 386.2C433.3 380 466.7 383 500 376.8C533.3 370.7 566.7 355.3 600 359.3C633.3 363.3 666.7 386.7 700 384.8C733.3 383 766.7 356 800 349C833.3 342 866.7 355 883.3 361.5L900 368L900 601L883.3 601C866.7 601 833.3 601 800 601C766.7 601 733.3 601 700 601C666.7 601 633.3 601 600 601C566.7 601 533.3 601 500 601C466.7 601 433.3 601 400 601C366.7 601 333.3 601 300 601C266.7 601 233.3 601 200 601C166.7 601 133.3 601 100 601C66.7 601 33.3 601 16.7 601L0 601Z" fill="#ff5879"></path><path d="M0 437L16.7 441C33.3 445 66.7 453 100 454.5C133.3 456 166.7 451 200 447.8C233.3 444.7 266.7 443.3 300 446.3C333.3 449.3 366.7 456.7 400 455.5C433.3 454.3 466.7 444.7 500 435C533.3 425.3 566.7 415.7 600 413C633.3 410.3 666.7 414.7 700 418.8C733.3 423 766.7 427 800 437.5C833.3 448 866.7 465 883.3 473.5L900 482L900 601L883.3 601C866.7 601 833.3 601 800 601C766.7 601 733.3 601 700 601C666.7 601 633.3 601 600 601C566.7 601 533.3 601 500 601C466.7 601 433.3 601 400 601C366.7 601 333.3 601 300 601C266.7 601 233.3 601 200 601C166.7 601 133.3 601 100 601C66.7 601 33.3 601 16.7 601L0 601Z" fill="#f22d9b"></path><path d="M0 481L16.7 480.8C33.3 480.7 66.7 480.3 100 488.3C133.3 496.3 166.7 512.7 200 514.7C233.3 516.7 266.7 504.3 300 499.5C333.3 494.7 366.7 497.3 400 506.5C433.3 515.7 466.7 531.3 500 529.8C533.3 528.3 566.7 509.7 600 501.8C633.3 494 666.7 497 700 507.2C733.3 517.3 766.7 534.7 800 544.2C833.3 553.7 866.7 555.3 883.3 556.2L900 557L900 601L883.3 601C866.7 601 833.3 601 800 601C766.7 601 733.3 601 700 601C666.7 601 633.3 601 600 601C566.7 601 533.3 601 500 601C466.7 601 433.3 601 400 601C366.7 601 333.3 601 300 601C266.7 601 233.3 601 200 601C166.7 601 133.3 601 100 601C66.7 601 33.3 601 16.7 601L0 601Z" fill="#c724c7"></path></svg>